<svg version="1.1" id="Layer_1" xmlns="http://www.w3.org/2000/svg" xmlns:xlink="http://www.w3.org/1999/xlink" x="0px" y="0px"
	 width="100" height="100" viewBox="0 0 512 512" enable-background="new 0 0 512 512" xml:space="preserve">
<path fill="#FAFAEF" opacity="1.000000" stroke="none" 
	d="
M1.000000,316.468658 
	C1.666224,315.185608 2.847815,314.415039 2.921402,313.550232 
	C4.033525,300.480133 4.303030,287.297211 6.169357,274.342346 
	C8.768773,256.298828 12.718830,238.453674 15.689398,220.457352 
	C16.519135,215.430603 16.013697,210.170090 15.984805,205.017563 
	C15.903589,190.533813 19.383532,176.879517 28.190327,165.455551 
	C33.036110,159.169724 39.604298,153.768036 46.358524,149.486069 
	C62.236168,139.420166 79.024200,130.871033 97.327324,126.064163 
	C108.364594,123.165497 119.583626,120.407036 130.891861,119.236565 
	C143.999908,117.879807 157.360016,117.381767 170.490707,118.274948 
	C183.014359,119.126831 195.359818,122.402596 207.827835,124.325996 
	C219.220490,126.083504 230.648880,127.673035 242.106873,128.919861 
	C249.139175,129.685089 256.255035,129.869400 263.336670,129.930191 
	C268.246460,129.972336 273.161835,129.359528 278.635468,129.472687 
	C283.489319,130.782486 287.801056,131.577087 292.072205,132.550064 
	C307.871277,136.149094 323.140472,141.400391 336.851440,150.060013 
	C353.798035,160.763229 370.183319,172.351181 386.935364,183.368011 
	C396.173828,189.443604 405.666718,195.132294 415.042725,201.451599 
	C415.010803,203.552490 414.950165,205.197327 414.956696,206.841919 
	C414.983276,213.554276 417.421051,215.975128 424.133270,216.002472 
	C428.738586,216.021225 433.343811,216.050903 437.997284,216.417709 
	C440.709656,219.181549 443.352234,221.627655 446.041809,224.020905 
	C456.970947,233.745911 466.544342,244.274887 469.942413,259.231995 
	C472.319122,269.693420 474.560425,280.347626 478.588989,290.210419 
	C480.975037,296.052063 482.735077,300.700378 478.956421,306.145172 
	C460.374603,290.018341 440.034088,276.811493 416.242523,269.800537 
	C407.127197,267.114471 397.805603,264.530518 388.000244,266.907196 
	C385.481293,267.517761 382.689484,267.002441 379.260742,266.751801 
	C377.998810,261.574127 377.643982,256.629089 376.970703,251.727814 
	C375.343994,239.886185 373.303497,228.175354 367.729736,217.342545 
	C362.197723,206.590820 353.705872,199.789581 341.963104,197.243912 
	C337.994873,196.383667 333.877289,196.532059 331.258575,200.583252 
	C328.597351,204.700256 330.666992,207.959015 332.917847,211.510620 
	C335.652618,215.825806 338.246277,220.350357 340.065399,225.104095 
	C346.317932,241.443268 347.010406,258.760193 347.868683,275.932190 
	C348.491302,288.388489 347.262024,300.958252 348.234558,313.369598 
	C349.028687,323.503906 350.918274,333.779083 354.008209,343.453308 
	C358.571045,357.739105 368.785004,367.870941 381.443420,375.788879 
	C391.115814,381.838989 391.165405,384.346588 383.103912,391.351532 
	C383.001678,391.440369 383.018524,391.666290 382.979767,391.828217 
	C372.664124,391.885498 362.348114,392.010315 352.033173,391.949738 
	C349.631805,391.935669 347.055054,391.707367 344.901489,390.781219 
	C343.594940,390.219391 342.170807,388.151276 342.131012,386.722778 
	C341.927734,379.425354 339.056885,373.952942 333.130585,369.506531 
	C323.802002,362.507385 319.182037,352.031647 315.129791,341.636871 
	C307.694489,322.563965 300.859497,303.250214 294.168182,283.900665 
	C293.009155,280.548981 291.133972,281.115875 288.159241,280.893005 
	C282.146820,280.960175 276.874603,280.824738 271.676910,281.382935 
	C258.868988,282.758331 246.084259,284.368530 233.312668,286.054535 
	C227.175079,286.864777 221.088333,288.060211 214.978577,289.081238 
	C202.673767,289.731873 190.368195,290.368774 178.066055,291.066528 
	C177.317261,291.109009 176.595840,291.634155 175.159790,291.676086 
	C169.707047,291.584595 164.952347,291.963715 160.206085,291.877533 
	C147.825989,291.652863 135.449585,291.224335 123.119690,290.534119 
	C124.383270,289.431702 125.521667,288.488647 126.825989,287.940216 
	C147.889160,279.083008 163.091599,264.740448 169.367844,242.203598 
	C172.409821,231.280411 173.130798,220.119461 172.033783,208.808914 
	C171.068466,198.856155 170.235367,188.946655 163.489471,180.744003 
	C161.072739,177.805389 159.144577,174.462723 156.705841,171.544846 
	C147.142899,160.103119 135.285995,152.222702 120.551300,149.157333 
	C117.056900,148.430374 113.283119,148.486877 111.479134,152.438873 
	C109.677032,156.386765 112.300980,158.814972 114.921608,161.397095 
	C119.857666,166.260651 125.275940,170.898788 129.112900,176.565598 
	C141.930206,195.495453 144.299042,216.402466 139.356995,238.458313 
	C134.949799,258.127258 123.878387,272.927124 106.453133,282.630310 
	C95.566734,288.692352 86.366585,296.093781 80.285072,307.102722 
	C77.153030,312.772430 73.682365,318.260254 70.679794,323.995209 
	C65.515450,333.859222 60.714245,343.913544 55.540073,353.772247 
	C51.248802,361.948700 57.356186,373.171143 65.862679,375.919037 
	C68.814880,376.872681 71.653816,378.454773 74.243484,380.197235 
	C80.367920,384.318024 81.051712,389.247742 76.660034,394.996277 
	C76.281075,395.492310 76.200005,396.215912 75.980560,396.833801 
	C57.529030,396.890167 39.072521,397.223480 20.627966,396.891846 
	C10.669904,396.712769 9.231909,390.627014 10.189766,384.175537 
	C10.526180,381.909668 9.967090,379.168396 8.909525,377.110504 
	C6.815320,373.035583 4.089485,369.285278 1.312382,365.700378 
	C1.000000,349.645782 1.000000,333.291534 1.000000,316.468658 
z"/>
<path fill="#E6E6D4" opacity="1.000000" stroke="none" 
	d="
M479.092224,306.470276 
	C482.735077,300.700378 480.975037,296.052063 478.588989,290.210419 
	C474.560425,280.347626 472.319122,269.693420 469.942413,259.231995 
	C466.544342,244.274887 456.970947,233.745911 446.041809,224.020905 
	C443.352234,221.627655 440.709656,219.181549 438.386414,216.372864 
	C446.095337,214.169037 447.733307,211.619080 446.295929,204.347458 
	C446.072845,203.218994 446.113617,202.038361 446.032379,200.881866 
	C454.973694,207.244247 464.102875,213.361237 472.810822,220.028381 
	C484.888000,229.275131 495.869385,239.665222 500.318756,254.870346 
	C502.433289,262.096405 503.011810,269.774811 505.165771,276.985565 
	C506.880371,282.725586 509.930023,288.066742 512.693481,293.292480 
	C513.000000,296.361298 513.000000,299.722565 513.000000,303.541931 
	C512.027832,304.493774 510.635651,304.728394 510.146759,305.520477 
	C503.402618,316.447388 495.018341,315.541473 484.515930,309.988892 
	C482.698486,309.028046 480.987946,307.864990 479.092224,306.470276 
z"/>
<path fill="#E6E6D3" opacity="1.000000" stroke="none" 
	d="
M76.443367,396.920624 
	C76.200005,396.215912 76.281075,395.492310 76.660034,394.996277 
	C81.051712,389.247742 80.367920,384.318024 74.243484,380.197235 
	C71.653816,378.454773 68.814880,376.872681 65.862679,375.919037 
	C57.356186,373.171143 51.248802,361.948700 55.540073,353.772247 
	C60.714245,343.913544 65.515450,333.859222 70.679794,323.995209 
	C73.682365,318.260254 77.153030,312.772430 80.285072,307.102722 
	C86.366585,296.093781 95.566734,288.692352 106.453133,282.630310 
	C123.878387,272.927124 134.949799,258.127258 139.356995,238.458313 
	C144.299042,216.402466 141.930206,195.495453 129.112900,176.565598 
	C125.275940,170.898788 119.857666,166.260651 114.921608,161.397095 
	C112.300980,158.814972 109.677032,156.386765 111.479134,152.438873 
	C113.283119,148.486877 117.056900,148.430374 120.551300,149.157333 
	C135.285995,152.222702 147.142899,160.103119 156.705841,171.544846 
	C159.144577,174.462723 161.072739,177.805389 163.489471,180.744003 
	C170.235367,188.946655 171.068466,198.856155 172.033783,208.808914 
	C173.130798,220.119461 172.409821,231.280411 169.367844,242.203598 
	C163.091599,264.740448 147.889160,279.083008 126.825989,287.940216 
	C125.521667,288.488647 124.383270,289.431702 122.765144,290.611206 
	C121.197708,292.135468 119.659241,293.034729 118.923996,294.374725 
	C108.210571,313.900391 97.502884,333.430969 87.049492,353.096252 
	C84.650040,357.610199 83.133957,362.606812 81.364761,367.437439 
	C80.412331,370.037964 81.044724,371.515076 84.228294,372.340546 
	C90.446335,373.952820 96.746864,375.699402 102.536430,378.409119 
	C111.983063,382.830475 113.163300,388.854492 106.962944,396.770386 
	C96.944023,396.849426 86.925102,396.928436 76.443367,396.920624 
z"/>
<path fill="#C7C7B6" opacity="1.000000" stroke="none" 
	d="
M214.976364,289.493500 
	C221.088333,288.060211 227.175079,286.864777 233.312668,286.054535 
	C246.084259,284.368530 258.868988,282.758331 271.676910,281.382935 
	C276.874603,280.824738 282.146820,280.960175 287.750458,280.929993 
	C286.410461,288.953369 284.336212,296.768005 283.071228,304.711456 
	C279.698944,325.888000 283.076263,346.313263 291.167572,365.979828 
	C292.241272,368.589417 294.948761,370.688049 297.257751,372.588013 
	C300.248413,375.048828 303.423492,377.407898 306.841370,379.194275 
	C310.582642,381.149658 312.055420,384.457489 310.704498,387.632202 
	C309.712189,389.964294 306.365875,391.514832 303.779663,392.856812 
	C302.465332,393.538788 300.511780,392.950989 298.849487,393.006439 
	C289.271393,393.326141 279.695465,393.853149 270.115784,393.930023 
	C264.370117,393.976105 258.613434,393.402252 252.872482,392.965454 
	C249.914841,392.740417 248.016663,391.061707 248.034302,387.969269 
	C248.070786,381.579742 245.030579,377.387909 240.097321,373.327057 
	C226.711441,362.308350 218.063766,347.987305 215.164932,330.844269 
	C213.584900,321.500275 213.388199,311.882782 213.129150,302.373352 
	C213.016479,298.237335 214.316010,294.062836 214.976364,289.493500 
z"/>
<path fill="#E6E6D3" opacity="1.000000" stroke="none" 
	d="
M383.439697,391.915649 
	C383.018524,391.666290 383.001678,391.440369 383.103912,391.351532 
	C391.165405,384.346588 391.115814,381.838989 381.443420,375.788879 
	C368.785004,367.870941 358.571045,357.739105 354.008209,343.453308 
	C350.918274,333.779083 349.028687,323.503906 348.234558,313.369598 
	C347.262024,300.958252 348.491302,288.388489 347.868683,275.932190 
	C347.010406,258.760193 346.317932,241.443268 340.065399,225.104095 
	C338.246277,220.350357 335.652618,215.825806 332.917847,211.510620 
	C330.666992,207.959015 328.597351,204.700256 331.258575,200.583252 
	C333.877289,196.532059 337.994873,196.383667 341.963104,197.243912 
	C353.705872,199.789581 362.197723,206.590820 367.729736,217.342545 
	C373.303497,228.175354 375.343994,239.886185 376.970703,251.727814 
	C377.643982,256.629089 377.998810,261.574127 378.807983,266.781799 
	C379.078461,280.204224 378.620056,293.359680 379.109131,306.479858 
	C379.688416,322.020020 381.653992,337.496552 388.456604,351.715546 
	C392.544708,360.260620 397.253235,368.522949 407.223846,372.191101 
	C411.178589,373.646088 414.844452,376.608154 417.834625,379.671936 
	C419.433411,381.310059 420.347748,384.962341 419.654541,387.077576 
	C419.069946,388.861237 415.787598,390.694122 413.580994,390.852203 
	C403.710358,391.559174 393.797363,391.674316 383.439697,391.915649 
z"/>
<path fill="#C7C7B6" opacity="1.000000" stroke="none" 
	d="
M107.424683,396.869690 
	C113.163300,388.854492 111.983063,382.830475 102.536430,378.409119 
	C96.746864,375.699402 90.446335,373.952820 84.228294,372.340546 
	C81.044724,371.515076 80.412331,370.037964 81.364761,367.437439 
	C83.133957,362.606812 84.650040,357.610199 87.049492,353.096252 
	C97.502884,333.430969 108.210571,313.900391 118.923996,294.374725 
	C119.659241,293.034729 121.197708,292.135468 122.717163,290.954163 
	C135.449585,291.224335 147.825989,291.652863 160.206085,291.877533 
	C164.952347,291.963715 169.707047,291.584595 174.733643,291.721893 
	C171.616989,298.240723 168.110855,304.396240 164.854111,310.680969 
	C156.005615,327.756317 147.067841,344.790741 138.590729,362.050232 
	C135.870758,367.588104 138.716705,371.039978 144.795639,373.159027 
	C150.659195,375.202942 156.383347,377.923950 161.725113,381.094849 
	C165.598358,383.393982 167.236710,387.872223 165.737549,392.134918 
	C164.362457,396.044891 160.331131,396.994110 156.352310,396.993683 
	C140.197006,396.991913 124.041710,396.978241 107.424683,396.869690 
z"/>
<path fill="#E7E7D4" opacity="1.000000" stroke="none" 
	d="
M415.044922,200.995422 
	C405.666718,195.132294 396.173828,189.443604 386.935364,183.368011 
	C370.183319,172.351181 353.798035,160.763229 336.851440,150.060013 
	C323.140472,141.400391 307.871277,136.149094 292.072205,132.550064 
	C287.801056,131.577087 283.489319,130.782486 279.088074,129.539642 
	C310.587646,126.827492 340.133209,133.737915 367.831848,148.955399 
	C385.940186,158.904022 402.649170,170.924133 419.006744,183.468521 
	C421.562561,185.428528 424.178528,187.310104 426.791687,189.862793 
	C422.892792,193.996902 418.968842,197.496155 415.044922,200.995422 
z"/>
<path fill="#C7C7B6" opacity="1.000000" stroke="none" 
	d="
M415.042725,201.451584 
	C418.968842,197.496155 422.892792,193.996902 426.956757,190.165558 
	C435.080444,190.195343 442.326294,191.904861 446.007050,200.527191 
	C446.113617,202.038361 446.072845,203.218994 446.295929,204.347458 
	C447.733307,211.619080 446.095337,214.169037 438.338196,216.030823 
	C433.343811,216.050903 428.738586,216.021225 424.133270,216.002472 
	C417.421051,215.975128 414.983276,213.554276 414.956696,206.841919 
	C414.950165,205.197327 415.010803,203.552490 415.042725,201.451584 
z"/>
</svg>